<svg width="6177" height="5491" viewBox="0 0 6177 5491" fill="none" xmlns="http://www.w3.org/2000/svg">
<path d="M6174.5 8C6174.5 8 4597.5 379 4390.5 992C4183.5 1605 4496 1885 4390.5 2427.5C4285 2970 2670.5 2841 2401 3166C2131.5 3491 2189.5 3626.5 2093.5 4437.5C1997.5 5248.5 1.5 5483.5 1.5 5483.5" stroke="white" stroke-width="15"/>
<path d="M5708 64.8784L5793 128.878" stroke="white" stroke-width="10"/>
<path d="M5849.86 8L5835.93 149.106" stroke="white" stroke-width="10"/>
<path d="M5771.5 226.878L5790.5 80.8784" stroke="white" stroke-width="10"/>
<path d="M5905.05 175.473L5832.44 97.9973" stroke="white" stroke-width="10"/>
<path d="M5799.42 159.788L5808.13 80.3372" stroke="white" stroke-width="10"/>
<path d="M5816.31 153.673L5823.8 78.4292" stroke="white" stroke-width="10"/>
<path d="M4921.32 382.383L5012.9 436.545" stroke="white" stroke-width="10"/>
<path d="M5055.98 310.099L5057.81 451.88" stroke="white" stroke-width="10"/>
<path d="M5002.42 536.327L5005.09 389.12" stroke="white" stroke-width="10"/>
<path d="M5129.43 470.406L5048.67 401.474" stroke="white" stroke-width="10"/>
<path d="M5022.71 466.551L5022.55 386.624" stroke="white" stroke-width="10"/>
<path d="M5038.82 458.597L5037.9 382.988" stroke="white" stroke-width="10"/>
<path d="M4321.57 920.609L4427.97 921.302" stroke="white" stroke-width="10"/>
<path d="M4401.54 790.357L4474.49 911.943" stroke="white" stroke-width="10"/>
<path d="M4469.15 1012.79L4397.34 884.259" stroke="white" stroke-width="10"/>
<path d="M4545.7 891.894L4441.22 872.992" stroke="white" stroke-width="10"/>
<path d="M4451.55 942.288L4411.17 873.314" stroke="white" stroke-width="10"/>
<path d="M4461.47 927.304L4422.61 862.439" stroke="white" stroke-width="10"/>
<path d="M4246.92 1717.17L4334.65 1656.97" stroke="white" stroke-width="10"/>
<path d="M4238.16 1564.58L4367.49 1622.72" stroke="white" stroke-width="10"/>
<path d="M4420.7 1708.55L4288.35 1644.06" stroke="white" stroke-width="10"/>
<path d="M4414.49 1565.59L4317.93 1609.75" stroke="white" stroke-width="10"/>
<path d="M4365.99 1660.73L4293.45 1627.17" stroke="white" stroke-width="10"/>
<path d="M4365.58 1642.76L4296.63 1611.71" stroke="white" stroke-width="10"/>
<path d="M4199.04 2599.9L4305.32 2604.9" stroke="white" stroke-width="10"/>
<path d="M4284.22 2473L4352.18 2597.44" stroke="white" stroke-width="10"/>
<path d="M4342.75 2697.99L4276.22 2566.65" stroke="white" stroke-width="10"/>
<path d="M4424.15 2580.3L4320.52 2557.17" stroke="white" stroke-width="10"/>
<path d="M4328.03 2626.83L4290.48 2556.27" stroke="white" stroke-width="10"/>
<path d="M4338.55 2612.26L4302.35 2545.87" stroke="white" stroke-width="10"/>
<path d="M3389.85 2968.38L3318.67 2889.3" stroke="white" stroke-width="10"/>
<path d="M3239.72 2997.06L3280.41 2861.23" stroke="white" stroke-width="10"/>
<path d="M3358.52 2797.22L3311.94 2936.89" stroke="white" stroke-width="10"/>
<path d="M3217.61 2822.13L3274.04 2912.06" stroke="white" stroke-width="10"/>
<path d="M3318.28 2857.73L3294.53 2934.05" stroke="white" stroke-width="10"/>
<path d="M3300.53 2860.5L3278.79 2932.92" stroke="white" stroke-width="10"/>
<path d="M2451.73 3228.74L2345.34 3227.28" stroke="white" stroke-width="10"/>
<path d="M2370.82 3358.41L2298.75 3236.31" stroke="white" stroke-width="10"/>
<path d="M2304.82 3135.5L2375.7 3264.54" stroke="white" stroke-width="10"/>
<path d="M2227.4 3255.84L2331.74 3275.5" stroke="white" stroke-width="10"/>
<path d="M2321.91 3206.13L2361.79 3275.39" stroke="white" stroke-width="10"/>
<path d="M2311.88 3221.04L2350.27 3286.18" stroke="white" stroke-width="10"/>
<path d="M2229.43 4116.42L2129.68 4153.45" stroke="white" stroke-width="10"/>
<path d="M2200.76 4266.55L2089.48 4178.67" stroke="white" stroke-width="10"/>
<path d="M2058.77 4082.46L2171.44 4177.24" stroke="white" stroke-width="10"/>
<path d="M2029.99 4222.63L2134.39 4203.32" stroke="white" stroke-width="10"/>
<path d="M2100.19 4142.17L2162.38 4192.38" stroke="white" stroke-width="10"/>
<path d="M2096.22 4159.69L2155.53 4206.6" stroke="white" stroke-width="10"/>
<path d="M1772.72 4995.26L1670.98 4964.14" stroke="white" stroke-width="10"/>
<path d="M1658.81 5097.17L1623.72 4959.78" stroke="white" stroke-width="10"/>
<path d="M1657.72 4864.69L1689.72 5008.4" stroke="white" stroke-width="10"/>
<path d="M1549.75 4958.61L1644.45 5006.63" stroke="white" stroke-width="10"/>
<path d="M1654.39 4937.28L1673.33 5014.93" stroke="white" stroke-width="10"/>
<path d="M1640.6 4948.79L1659.26 5022.07" stroke="white" stroke-width="10"/>
<path d="M737.529 5415.99L651.834 5352.92" stroke="white" stroke-width="10"/>
<path d="M596.297 5474.42L608.689 5333.17" stroke="white" stroke-width="10"/>
<path d="M672.262 5254.69L654.861 5400.89" stroke="white" stroke-width="10"/>
<path d="M539.287 5307.56L612.733 5384.23" stroke="white" stroke-width="10"/>
<path d="M645.08 5322.09L637.239 5401.63" stroke="white" stroke-width="10"/>
<path d="M628.251 5328.39L621.593 5403.71" stroke="white" stroke-width="10"/>
</svg>
